<?xml version="1.0" encoding="utf-8"?>
<!-- Generator: Adobe Illustrator 26.0.1, SVG Export Plug-In . SVG Version: 6.00 Build 0)  -->
<svg version="1.1" id="Capa_1" xmlns="http://www.w3.org/2000/svg" xmlns:xlink="http://www.w3.org/1999/xlink" x="0px" y="0px"
	 viewBox="0 0 255.1 255.1" style="enable-background:new 0 0 255.1 255.1;" xml:space="preserve">
<style type="text/css">
	.st0{fill:#4CD1C0;}
	.st1{fill:#FFFFFF;}
</style>
<circle class="st0" cx="127.6" cy="127.6" r="121.6"/>
<g>
	<polygon class="st1" points="80,106.5 123.4,127.6 80,148.7 36.6,127.6 	"/>
	<g>
		<polygon class="st1" points="175.2,106.5 131.8,127.6 175.2,148.7 218.6,127.6 		"/>
		<polygon class="st1" points="175.2,52.1 131.8,75 131.8,119.8 132.1,119.6 132.1,119.6 132.7,119.3 175.2,98.1 175.2,98.1 
			175.2,98.1 		"/>
	</g>
	<polygon class="st1" points="175.2,203.1 131.8,180.2 131.8,135.4 132.1,135.6 132.1,135.6 132.7,135.9 175.2,157.1 175.2,157.1 
		175.2,157.1 	"/>
	<polygon class="st1" points="80,52.1 123.4,75 123.4,119.8 123.1,119.6 123.1,119.6 122.5,119.3 80,98.1 80,98.1 80,98.1 	"/>
	<polygon class="st1" points="80,203.1 123.4,180.2 123.4,135.4 123.1,135.6 123.1,135.6 122.5,135.9 80,157.1 80,157.1 80,157.1 	
		"/>
</g>
</svg>
