<?xml version="1.0" encoding="utf-8"?>
<!-- Generator: Adobe Illustrator 26.0.1, SVG Export Plug-In . SVG Version: 6.00 Build 0)  -->
<svg version="1.1" id="Capa_1" xmlns="http://www.w3.org/2000/svg" xmlns:xlink="http://www.w3.org/1999/xlink" x="0px" y="0px"
	 viewBox="0 0 255.1 255.1" style="enable-background:new 0 0 255.1 255.1;" xml:space="preserve">
<style type="text/css">
	.st0{fill:#C8B686;}
	.st1{fill-rule:evenodd;clip-rule:evenodd;fill:#FFFFFF;}
</style>
<circle class="st0" cx="127.6" cy="127.6" r="121.6"/>
<path class="st1" d="M173.6,124C173.6,124,173.6,124,173.6,124l10.8-62.8c0,0,0,0,0.1,0h3.4c0,0,0,0,0.1,0l24.2,76.8
	c0,0,0,0.1,0,0.1l-17.9,14c0,0-0.1,0-0.1,0L173.6,124z M43.1,165.6C43.1,165.7,43.1,165.7,43.1,165.6L80,177.8c0,0,0,0,0.1,0
	l82.4-56.9c0,0,0,0,0,0l8.8-59.3c0,0,0-0.1-0.1-0.1h-73c0,0,0,0,0,0L43.1,128c0,0,0,0,0,0V165.6z M95.3,180.8l40.3,13.2
	c0,0,0,0,0.1,0l47.9-34.4c0,0,0-0.1,0-0.1l-18-26.7c0,0-0.1,0-0.1,0L95.3,180.8z"/>
</svg>
