<?xml version="1.0" encoding="utf-8"?>
<!-- Generator: Adobe Illustrator 26.0.1, SVG Export Plug-In . SVG Version: 6.00 Build 0)  -->
<svg version="1.1" id="Layer_1" xmlns="http://www.w3.org/2000/svg" xmlns:xlink="http://www.w3.org/1999/xlink" x="0px" y="0px"
	 viewBox="0 0 200 200" style="enable-background:new 0 0 200 200;" xml:space="preserve">
<style type="text/css">
	.st0{fill:#010101;}
	.st1{fill:#FFFFFF;}
</style>
<rect class="st0" width="200" height="200"/>
<path class="st1" d="M44.13,36.15l5.38-8.99c-0.63-0.27-1.3-0.47-2.03-0.47c-2.95,0-5.34,2.39-5.34,5.34
	C42.13,33.71,42.93,35.17,44.13,36.15"/>
<path class="st1" d="M80.64,62.72l-1.43-0.96c-0.28-4.65-1.94-9.19-4.87-12.94l-3.75,0.48l0.26-0.39c0.98-1.46,0.58-3.46-0.88-4.43
	l-2.09-1.39c-1.46-0.98-3.46-0.58-4.43,0.88l-0.29,0.44l-1.66-9.95l-10.11-6.28l-5.42,9.05l2.66,1.48l-19.29-2.44l-2.79,4.18
	l11.64,7.77c-0.52,0.63-1.03,1.28-1.5,1.98c-0.46,0.7-0.87,1.41-1.25,2.14l-11.64-7.77L21,48.75l15.07,26.38l0.03-0.04
	c0.3,0.51,0.64,0.99,0.98,1.48l5.03-0.65l-0.94,1.4c-0.98,1.46-0.58,3.46,0.88,4.43l2.09,1.39c1.46,0.98,3.46,0.58,4.43-0.88
	l0.78-1.17l0.57,4.45c4.38,1.19,8.97,1.03,13.2-0.32l1.71,1.14c4.67-1.65,8.87-4.76,11.83-9.2C79.63,72.74,80.91,67.66,80.64,62.72
	 M63.47,75.24c-0.33,0.49-0.99,0.62-1.48,0.29c-0.49-0.33-0.62-0.99-0.29-1.48c0.33-0.49,0.99-0.62,1.48-0.29
	C63.67,74.09,63.8,74.75,63.47,75.24 M63.1,67.86c-1.58,2.37-4.24,3.79-7.09,3.79c-1.69,0-3.32-0.5-4.73-1.44
	c-3.91-2.61-4.96-7.91-2.35-11.82c1.59-2.38,4.24-3.79,7.1-3.79c1.69,0,3.32,0.5,4.73,1.43C64.65,58.64,65.71,63.95,63.1,67.86
	 M66.49,79.64c-0.33,0.49-0.99,0.62-1.48,0.29c-0.49-0.33-0.62-0.99-0.29-1.48c0.33-0.49,0.99-0.62,1.48-0.29
	C66.68,78.48,66.81,79.14,66.49,79.64 M67.32,71.27c-0.33,0.49-0.99,0.62-1.48,0.29c-0.49-0.33-0.62-0.99-0.29-1.48
	c0.33-0.49,0.99-0.62,1.48-0.29C67.51,70.12,67.64,70.78,67.32,71.27 M68.04,66.49c-0.49-0.33-0.62-0.99-0.29-1.48
	c0.33-0.49,0.99-0.62,1.48-0.29c0.49,0.33,0.62,0.99,0.29,1.48C69.19,66.68,68.53,66.81,68.04,66.49 M71.43,74.01
	c-0.33,0.49-0.99,0.62-1.48,0.29c-0.49-0.33-0.62-0.99-0.29-1.48c0.33-0.49,0.99-0.62,1.48-0.29
	C71.63,72.86,71.76,73.52,71.43,74.01 M74.73,67.29c-0.33,0.49-0.99,0.62-1.48,0.29c-0.49-0.33-0.62-0.99-0.29-1.48
	c0.33-0.49,0.99-0.62,1.48-0.29C74.92,66.14,75.06,66.81,74.73,67.29"/>
<path class="st1" d="M59.56,57.8c-1.06-0.71-2.28-1.08-3.54-1.08c-2.15,0-4.14,1.06-5.32,2.84c-1.96,2.93-1.16,6.91,1.77,8.87
	c1.05,0.71,2.28,1.08,3.54,1.08c2.15,0,4.13-1.06,5.32-2.84C63.29,63.74,62.49,59.76,59.56,57.8"/>
<path class="st1" d="M176.93,55.47c-0.07-1.82-0.27-3.6-0.65-5.33H164.2v-2.13h4.26v-2.13h-8.53v-2.13h6.39v-2.13h-2.13v-2.13h-4.26
	v-2.13h2.13v-2.13h-4.26v-2.13h2.13v-2.13V29.6c-3.88-1.85-8.2-2.91-12.79-2.91c-16.12,0-29.22,12.79-29.79,28.77H176.93z
	 M136.49,33.09c4.71,0,8.53,3.82,8.53,8.53c0,4.71-3.82,8.53-8.53,8.53c-4.71,0-8.53-3.82-8.53-8.53
	C127.96,36.91,131.78,33.09,136.49,33.09"/>
<path class="st1" d="M153.54,84.24h-2.13v-2.13h6.39v-2.13h2.13v-2.13h6.39v-2.13h2.13v-2.13h-4.26v-2.13h-6.39v-2.13h4.26v-2.13
	h8.53v-2.13h-4.26v-2.13h9.95c0.38-1.72,0.58-3.51,0.65-5.33h-59.57c0.57,15.98,13.66,28.77,29.79,28.77c2.2,0,4.33-0.25,6.39-0.7
	V84.24z"/>
<g id="Layer_1_00000120561337273307314310000002856965931036322178_">
	<g>
		<path class="st1" d="M59.05,141.09c0-1.68-1.36-3.04-3.04-3.04c-1.68,0-3.04,1.36-3.04,3.04v0.76h6.08L59.05,141.09z
			 M56.01,140.44c-0.48,0-0.87-0.39-0.87-0.87s0.39-0.87,0.87-0.87c0.48,0,0.87,0.39,0.87,0.87
			C56.88,140.05,56.49,140.44,56.01,140.44z M57.75,141.09c-0.24,0-0.43-0.19-0.43-0.43c0-0.24,0.19-0.43,0.43-0.43
			c0.24,0,0.43,0.19,0.43,0.43C58.18,140.9,57.99,141.09,57.75,141.09z"/>
		<path class="st1" d="M49.09,151.19l0.03-0.16l0.81-3.86h-1.18c0.47-0.52,0.83-1.14,1.02-1.86c0.65-2.43-0.79-4.93-3.22-5.58
			c-2.43-0.65-4.93,0.79-5.58,3.22c-0.01,0.03-0.01,0.07-0.02,0.1l-4.16,1.05l-11.57-3.07c0.24-0.43,0.39-0.93,0.39-1.46
			c0-1.68-1.36-3.04-3.04-3.04c-1.68,0-3.04,1.36-3.04,3.04c0,1.47,1.05,2.7,2.43,2.98l25.13,6.9l-25.13,6.9
			c-1.39,0.28-2.43,1.51-2.43,2.98c0,1.68,1.36,3.04,3.04,3.04c1.68,0,3.04-1.36,3.04-3.04c0-0.53-0.15-1.02-0.39-1.46l11.56-3.07
			l4.16,1.05c0.01,0.03,0.01,0.07,0.02,0.1c0.65,2.43,3.15,3.88,5.58,3.22c2.01-0.54,3.33-2.35,3.36-4.33l-0.78-3.49L49.09,151.19z
			 M22.57,141.09c-0.84,0-1.52-0.68-1.52-1.52s0.68-1.52,1.52-1.52c0.84,0,1.52,0.68,1.52,1.52S23.41,141.09,22.57,141.09z
			 M22.57,160.85c-0.84,0-1.52-0.68-1.52-1.52s0.68-1.52,1.52-1.52c0.84,0,1.52,0.68,1.52,1.52S23.41,160.85,22.57,160.85z
			 M44.58,147.07c-1.5-0.4-2.42-1.85-2.21-3.35l5.8,1.55C47.6,146.67,46.08,147.47,44.58,147.07z M42.37,155.18
			c-0.21-1.5,0.71-2.95,2.21-3.35c1.5-0.4,3.02,0.4,3.59,1.79L42.37,155.18z M46.16,157.71c-1.5,0.4-3.02-0.4-3.59-1.79l5.8-1.55
			C48.57,155.85,47.65,157.3,46.16,157.71z M48.37,144.54l-5.8-1.55c0.57-1.4,2.09-2.19,3.59-1.79
			C47.65,141.59,48.57,143.04,48.37,144.54z"/>
		<path class="st1" d="M90.05,156.35l-25.13-6.9l25.13-6.9c1.39-0.28,2.43-1.51,2.43-2.98c0-1.68-1.36-3.04-3.04-3.04
			c-1.68,0-3.04,1.36-3.04,3.04c0,0.53,0.15,1.02,0.39,1.46l-11.56,3.07l-4.16-1.05c-0.01-0.03-0.01-0.07-0.02-0.1
			c-0.65-2.43-3.15-3.88-5.58-3.22c-2.43,0.65-3.88,3.15-3.22,5.58c0.19,0.72,0.55,1.34,1.02,1.86h-1.22l0.78,3.87l0.03,0.16
			l-0.03,0.16l-0.74,3.42h0.01c0,2.02,1.32,3.87,3.36,4.41c2.43,0.65,4.93-0.79,5.58-3.22c0.01-0.03,0.01-0.07,0.02-0.1l4.16-1.05
			l11.56,3.07c-0.24,0.43-0.39,0.93-0.39,1.46c0,1.68,1.36,3.04,3.04,3.04c1.68,0,3.04-1.36,3.04-3.04
			C92.49,157.86,91.44,156.63,90.05,156.35z M89.45,138.05c0.84,0,1.52,0.68,1.52,1.52s-0.68,1.52-1.52,1.52
			c-0.84,0-1.52-0.68-1.52-1.52S88.61,138.05,89.45,138.05z M69.65,143.72c0.21,1.5-0.71,2.95-2.21,3.35
			c-1.5,0.4-3.02-0.4-3.59-1.79L69.65,143.72z M65.86,141.19c1.5-0.4,3.02,0.4,3.59,1.79l-5.8,1.55
			C63.45,143.04,64.37,141.59,65.86,141.19z M65.86,157.71c-1.5-0.4-2.42-1.85-2.21-3.35l5.8,1.55
			C68.88,157.31,67.36,158.11,65.86,157.71z M69.65,155.18l-5.8-1.55c0.57-1.4,2.09-2.19,3.59-1.79
			C68.93,152.23,69.85,153.68,69.65,155.18z M89.45,160.85c-0.84,0-1.52-0.68-1.52-1.52s0.68-1.52,1.52-1.52
			c0.84,0,1.52,0.68,1.52,1.52S90.29,160.85,89.45,160.85z"/>
		<path class="st1" d="M51.67,142.61l-1.8,8.58l1.54,8.18l1.86-4.6h5.47l1.86,4.58l1.48-8.17l-1.74-8.58H51.67z M51.95,148.69
			l0.77-3.69l0.5,3.69H51.95z M58.03,148.69h-4.05l-0.62-4.56h5.28L58.03,148.69z M58.8,148.69l0.49-3.65l0.74,3.65H58.8z"/>
		<path class="st1" d="M53.79,155.53l-2.12,5.22l1.16,3.14h6.36l1.16-3.14l-2.12-5.22H53.79z M57.15,158.57h-2.28v-2.28h2.28V158.57
			z"/>
	</g>
</g>
<g id="Layer_1_00000091736445106324862130000007219783321120620679_">
	<g>
		<path class="st1" d="M134.97,153.25c-0.27,0-0.53-0.04-0.79-0.08l-7.26,19.36h16.1l-7.26-19.36
			C135.5,153.22,135.24,153.25,134.97,153.25z"/>
		<path class="st1" d="M130,149.19h-11.26l6.3,22.6l7.25-19.33C131.13,151.74,130.28,150.57,130,149.19z"/>
		<path class="st1" d="M139.94,149.19c-0.28,1.38-1.13,2.55-2.28,3.27l7.25,19.33l6.03-22.6H139.94z"/>
		<path class="st1" d="M132.28,143.89l-7.25-19.33l-6.3,22.6H130C130.28,145.79,131.13,144.62,132.28,143.89z"/>
		<path class="st1" d="M134.97,143.11c0.27,0,0.53,0.04,0.79,0.08l7.26-19.36h-16.1l7.26,19.36
			C134.44,143.14,134.7,143.11,134.97,143.11z"/>
		<path class="st1" d="M139.94,147.17h10.99l-6.03-22.6l-7.25,19.33C138.81,144.62,139.66,145.79,139.94,147.17z"/>
		<circle class="st1" cx="134.97" cy="148.18" r="2.03"/>
		<path class="st1" d="M152.41,144.81l0.9,3.37l-0.9,3.37c0.55,0.3,1.17,0.49,1.84,0.49c2.13,0,3.86-1.73,3.86-3.86
			c0-2.13-1.73-3.86-3.86-3.86C153.58,144.32,152.96,144.51,152.41,144.81z"/>
		<path class="st1" d="M154.76,143.31c0,0.02-0.02,0.03-0.02,0.05c0.98,0.1,1.86,0.48,2.58,1.07c0.01-0.01,0.01-0.03,0.02-0.05
			l1.9-1.9c-1.22-1.07-2.77-1.74-4.48-1.86V143.31z"/>
		<path class="st1" d="M151.44,141.17l0.71,2.65c0.5-0.24,1.04-0.4,1.62-0.46c0-0.02-0.02-0.03-0.02-0.05v-2.69
			C152.93,140.67,152.16,140.89,151.44,141.17z"/>
		<path class="st1" d="M153.74,155.74v-2.69c0-0.02,0.02-0.03,0.02-0.05c-0.58-0.06-1.12-0.22-1.62-0.46l-0.71,2.65
			C152.16,155.47,152.93,155.69,153.74,155.74z"/>
		<path class="st1" d="M161.81,148.69h-2.69c-0.02,0-0.03-0.02-0.05-0.02c-0.1,0.98-0.48,1.86-1.07,2.58
			c0.01,0.01,0.03,0.01,0.05,0.02l1.9,1.9C161.02,151.95,161.69,150.4,161.81,148.69z"/>
		<path class="st1" d="M159.95,143.19l-1.9,1.9c-0.01,0.01-0.03,0.01-0.05,0.02c0.59,0.72,0.97,1.6,1.07,2.58
			c0.02,0,0.03-0.02,0.05-0.02h2.69C161.69,145.96,161.02,144.41,159.95,143.19z"/>
		<path class="st1" d="M159.24,153.88l-1.9-1.9c-0.01-0.01-0.01-0.03-0.02-0.05c-0.72,0.59-1.6,0.97-2.58,1.07
			c0,0.02,0.02,0.03,0.02,0.05v2.69C156.47,155.62,158.02,154.95,159.24,153.88z"/>
		<path class="st1" d="M169.07,123.83h-19.48l-1.38,5.2l1.86,6.98h3.18c6.82,0,12.18,5.62,12.18,12.18l0,0
			c0,6.73-5.45,12.18-12.18,12.18h-3.18l-1.86,6.98l1.38,5.2h19.48l6.49-24.35L169.07,123.83z"/>
	</g>
</g>
</svg>
