<?xml version="1.0" encoding="utf-8"?>
<!-- Generator: Adobe Illustrator 26.0.1, SVG Export Plug-In . SVG Version: 6.00 Build 0)  -->
<svg version="1.1" id="Layer_1" xmlns="http://www.w3.org/2000/svg" xmlns:xlink="http://www.w3.org/1999/xlink" x="0px" y="0px"
	 viewBox="0 0 910.1 909" style="enable-background:new 0 0 910.1 909;" xml:space="preserve">
<style type="text/css">
	.st0{fill:#010101;}
	.st1{fill:#FFFFFF;}
	.st2{fill:#EB2127;}
</style>
<path class="st0" d="M0,454.1C0.6,202.1,204.8-1.1,456.4,0c251.8,1,454.3,204.2,453.8,455.4S705.4,909.8,454.5,908.9
	C202.6,908.1-0.6,704.7,0,454.1z"/>
<path class="st1" d="M173,488.7c35.7,0,71.4,0.2,107.1-0.2c7.3-0.1,10.2,2,12,9.3c18.8,73.7,86,125.2,163,125.4
	c76.6,0.2,143.7-51.3,163.3-125.3c2-7.4,4.8-9.3,12-9.3c71.8,0.2,143.6,0.2,215.4,0c8,0,9.5,1.5,8.6,9.9
	C837.3,661.5,718.3,804,551.9,843.6c-136.2,32.4-259,1.8-364.6-90.7c-72-63.1-113.7-143.6-129.4-237.7c-4.4-26.5-4.5-26.5,22.7-26.5
	L173,488.7z"/>
<path class="st2" d="M736.7,419.9c-34.9,0-69.9-0.3-104.8,0.2c-8.3,0.1-11.7-2.7-13.9-10.6c-19.8-69.4-80.6-119.6-148.7-123.4
	c-76.8-4.3-141.6,35.3-170.7,104.1c-0.9,2.1-1.7,4.2-2.4,6.3c-8,23.4-8,23.4-33.4,23.4c-64.6,0-129.2-0.2-193.9,0.2
	c-9.6,0-13.8-0.9-12.1-12.7C79.6,251.6,163,141.2,308.4,82.3c156.7-63.5,330.1-21.4,443.9,103.1c57.1,62.4,90.4,136.3,101,220.3
	c1.8,14.1,1.6,14.2-12.9,14.2C805.9,419.9,771.3,419.9,736.7,419.9z"/>
<path class="st1" d="M456.1,572.6c-64.1,0.6-118.5-51.9-119-114.8c-0.5-67.3,51.3-121,117-121.4c64.8-0.4,118.5,52.3,119.3,117.2
	C574.3,518.1,521.1,572.1,456.1,572.6z"/>
<path class="st0" d="M456.1,396.6c32.7,0.4,57.5,26.2,57.2,59.4c-0.4,31.9-26.4,56.8-59,56.5c-31.9-0.2-57.6-26.2-57.4-58.1
	c0-0.1,0-0.1,0-0.2C397.3,421.4,423.2,396.2,456.1,396.6z"/>
</svg>
