<?xml version="1.0" encoding="utf-8"?>
<!-- Generator: Adobe Illustrator 26.0.1, SVG Export Plug-In . SVG Version: 6.00 Build 0)  -->
<svg version="1.1"
	 id="Layer_1" inkscape:version="0.48.4 r9939" sodipodi:docname="English_Pokémon_logo.svg" xmlns:cc="http://creativecommons.org/ns#" xmlns:dc="http://purl.org/dc/elements/1.1/" xmlns:inkscape="http://www.inkscape.org/namespaces/inkscape" xmlns:rdf="http://www.w3.org/1999/02/22-rdf-syntax-ns#" xmlns:sodipodi="http://sodipodi.sourceforge.net/DTD/sodipodi-0.dtd" xmlns:svg="http://www.w3.org/2000/svg"
	 xmlns="http://www.w3.org/2000/svg" xmlns:xlink="http://www.w3.org/1999/xlink" x="0px" y="0px" viewBox="0 0 269.5 98.8"
	 style="enable-background:new 0 0 269.5 98.8;" xml:space="preserve">
<style type="text/css">
	.st0{fill:url(#polygon16_00000110438031638853710320000009154888935794936740_);}
	.st1{fill:#0071B9;}
	.st2{fill:url(#polygon25_00000038376546832262494900000004481623184997825180_);}
	.st3{fill:#1D2C5E;}
	.st4{fill:url(#polygon36_00000005962073351567512630000005733739300743911065_);}
	.st5{fill:url(#polygon43_00000052091321099431369570000017687889842114656190_);}
	.st6{fill:#312370;}
	.st7{fill:#21386E;}
	.st8{fill:url(#polygon56_00000029031512279231262190000005156044630122853776_);}
	.st9{fill:url(#path69_00000132057530010509754860000000993649068837710231_);}
	.st10{fill:url(#polygon78_00000152257922285290412250000002741634278629768362_);}
	.st11{fill:#FFCB05;}
	.st12{fill:#7D7F68;}
	.st13{fill:#C7A008;}
	.st14{fill:#3C5AA6;}
	.st15{fill:#3567B0;}
	.st16{fill:#1E2D5F;}
	.st17{fill:#3466AF;}
	.st18{fill:url(#path183_00000072266426288692741990000005180539178521745330_);}
	.st19{fill:url(#path196_00000165220214722265656640000005562408419806896030_);}
</style>
<sodipodi:namedview  bordercolor="#666666" borderopacity="1" gridtolerance="10" guidetolerance="10" id="namedview103" inkscape:current-layer="Layer_1" inkscape:cx="134.7345" inkscape:cy="49.407001" inkscape:pageopacity="0" inkscape:pageshadow="2" inkscape:window-height="706" inkscape:window-maximized="1" inkscape:window-width="1280" inkscape:window-x="-8" inkscape:window-y="-8" inkscape:zoom="4.1563223" objecttolerance="10" pagecolor="#ffffff" showgrid="false">
	</sodipodi:namedview>
<linearGradient id="polygon16_00000153687086135476035150000014601489912375503018_" gradientUnits="userSpaceOnUse" x1="426.7507" y1="-632.7102" x2="416.7334" y2="-614.0415" gradientTransform="matrix(1 0 0 -1 -413.451 -579.186)">
	<stop  offset="0" style="stop-color:#0070B6"/>
	<stop  offset="1" style="stop-color:#1D2C5E"/>
</linearGradient>
<polygon id="polygon16" style="fill:url(#polygon16_00000153687086135476035150000014601489912375503018_);" points="0,36.6 
	12,56.9 16.8,52.3 3.7,32.8 "/>
<polygon id="polygon18" class="st1" points="178.6,20.6 178.1,23.3 183.8,21.4 183.1,18.1 "/>
<linearGradient id="polygon25_00000047750760123740127490000004492163426664955068_" gradientUnits="userSpaceOnUse" x1="548.926" y1="-594.5724" x2="561.6412" y2="-580.9485" gradientTransform="matrix(1 0 0 -1 -413.451 -579.186)">
	<stop  offset="0" style="stop-color:#0070B6"/>
	<stop  offset="1" style="stop-color:#1D2C5E"/>
</linearGradient>
<polygon id="polygon25" style="fill:url(#polygon25_00000047750760123740127490000004492163426664955068_);" points="145,2.3 
	126.5,23.5 131.9,22 149.5,0 "/>
<polygon id="polygon27" class="st3" points="244.1,31.3 248.6,28.9 247.3,40.3 "/>
<polygon id="polygon29" class="st3" points="215.8,38.6 219.9,39.5 225,37 220.5,35.3 "/>
<linearGradient id="polygon36_00000058559635739910240540000009101177296019542711_" gradientUnits="userSpaceOnUse" x1="493.4529" y1="-617.2861" x2="491.9366" y2="-604.5478" gradientTransform="matrix(1 0 0 -1 -413.451 -579.186)">
	<stop  offset="0" style="stop-color:#0070B6"/>
	<stop  offset="1" style="stop-color:#1D2C5E"/>
</linearGradient>
<polygon id="polygon36" style="fill:url(#polygon36_00000058559635739910240540000009101177296019542711_);" points="76.6,26.6 
	77.2,39.7 82.9,37.5 81.2,24.1 "/>
<linearGradient id="polygon43_00000093135491247960019610000010615401122913617576_" gradientUnits="userSpaceOnUse" x1="632.3474" y1="-614.834" x2="631.7419" y2="-603.336" gradientTransform="matrix(1 0 0 -1 -413.451 -579.186)">
	<stop  offset="0" style="stop-color:#125D9E"/>
	<stop  offset="1" style="stop-color:#1D2C5E"/>
</linearGradient>
<polygon id="polygon43" style="fill:url(#polygon43_00000093135491247960019610000010615401122913617576_);" points="220.2,22.6 
	215.7,25.1 215.8,38.6 220.4,36.3 221.8,29.7 "/>
<polygon id="polygon45" class="st6" points="219.6,39.5 214.6,83.9 222.6,82.3 224.1,37.1 "/>
<polygon id="polygon47" class="st7" points="229.3,86 229.5,92 244.8,96.9 249.4,94.5 234.3,82.8 219.1,81.5 214.6,83.9 "/>
<polygon id="polygon49" class="st7" points="172.5,75.4 176.2,73.4 178.7,77.8 182.2,75.9 182.9,81.7 205.2,85.7 209.6,83.2 
	178.9,64.5 157.1,68.2 152.9,72.3 "/>
<linearGradient id="polygon56_00000173161437454412533700000007218217205309276855_" gradientUnits="userSpaceOnUse" x1="589.9117" y1="-598.261" x2="576.5682" y2="-619.4891" gradientTransform="matrix(1 0 0 -1 -413.451 -579.186)">
	<stop  offset="0" style="stop-color:#125D9E"/>
	<stop  offset="1" style="stop-color:#1D2C5E"/>
</linearGradient>
<polygon id="polygon56" style="fill:url(#polygon56_00000173161437454412533700000007218217205309276855_);" points="165.4,20.8 
	160.9,23.3 152.9,72.3 157.4,69.9 165.1,42.4 "/>
<polygon id="polygon58" class="st3" points="129.8,27.4 126.2,29.3 126.5,30.5 135,25.1 131.3,21.1 126.5,23.5 "/>
<polygon id="polygon60" class="st7" points="139.5,85.3 103.2,67.3 107.7,63.8 144,82.8 "/>
<polygon id="polygon62" class="st3" points="106.6,18.3 101.1,28.7 106.9,27 111.1,15.8 "/>
<linearGradient id="path69_00000088091377671641553270000011862192933590605972_" gradientUnits="userSpaceOnUse" x1="471.8214" y1="-632.3095" x2="480.9194" y2="-650.2025" gradientTransform="matrix(1 0 0 -1 -413.451 -579.186)">
	<stop  offset="0" style="stop-color:#105FA1"/>
	<stop  offset="1" style="stop-color:#1D2C5E"/>
</linearGradient>
<path id="path69" style="fill:url(#path69_00000088091377671641553270000011862192933590605972_);" d="M56.6,61.4L52,64.6
	c0,0,1,5.2,2.3,8.8c1.3,3.6,4.3,6.5,4.3,6.5c2,1.9,4.3,3.3,7,4.1c5.1,1.5,10.9,0.5,15.9-2.7c1.3-0.8,3.1-2.1,4.2-3.2
	C80.8,81.1,56.6,61.4,56.6,61.4z"/>
<polygon id="polygon71" class="st3" points="81.5,38.7 85.7,85.4 103.1,82.9 107.7,80.5 86.2,35.9 81.8,37.4 77.2,39.7 "/>
<linearGradient id="polygon78_00000099649124098022522960000007391972397061490066_" gradientUnits="userSpaceOnUse" x1="437.4921" y1="-626.2021" x2="448.0216" y2="-650.6116" gradientTransform="matrix(1 0 0 -1 -413.451 -579.186)">
	<stop  offset="0" style="stop-color:#105FA1"/>
	<stop  offset="1" style="stop-color:#1D2C5E"/>
</linearGradient>
<polygon id="polygon78" style="fill:url(#polygon78_00000099649124098022522960000007391972397061490066_);" points="16.5,54.9 
	35.9,98.8 54.3,92.9 58.8,89.9 20.6,49.9 15.8,52.8 12,56.9 "/>
<path id="path80" class="st3" d="M208.4,75.6l0.3,2.2c1.6-0.2,3.2-0.4,4.7-0.9c1.7-0.6,5.3-2.2,6.6-3.4
	C219.4,73.7,211,75.9,208.4,75.6"/>
<path id="path82" class="st3" d="M143.3,64.4l0.7,3.5c3.7-0.6,6.9-1.9,10.1-3.8c2-1.2,4.1-2.9,4.8-3.4
	C158.4,61,143.3,64.4,143.3,64.4z"/>
<g id="g84" transform="translate(-5.451,-1.686)">
	<path id="path86" class="st11" d="M46.4,96.3L45,93.1l-18.4-41l-0.4-0.8l-0.8,0.4L24.8,52l-3.3,1.6c-0.5-0.8-1.3-2.2-1.8-3.1
		L12.3,38l-1.9-3.3l3.2-2c3-1.9,6.4-3.7,10.2-5.3c7.4-3.1,14.9-4.8,21.8-4.8c2.3,0,4.5,0.2,6.5,0.5c3.4,0.4,6.6,1.5,9.2,3.3
		c3.9,2.2,7,5.6,8.7,9.6c1.4,3.3,1.7,7.2,0.8,11.2l-0.5,2.4l2-1.4c1.3-1,2.7-1.8,4.2-2.4c2.6-1.1,5.3-1.7,8-1.7c2.6,0,5,0.5,7.2,1.5
		l1.4,0.6l-0.1-1.6l-0.6-6.7l-0.1-1.1l-1,0.3l-3.1,0.8l-0.5-11.4l22.8-7.3l-0.2,8.9l1.7,0.4l5-9.5l14.9,13.2l0.6,0.6l0.6-0.6
		c2-1.9,4.5-3.5,7.2-4.6l1.1-0.5l-0.8-1l-2.7-3.3l17.1-19.7l9,13.4l-13.7,7.4l-3,1.6l3.5,0.1c6.5,0.1,12.3,2.9,16.2,7.7l1.4,1.8
		l0.9,1.1l-1.5,1.6l-1,1.1l-3.4,3.7l-0.6,0.7l0.7,0.6l3.2,2.9l1.2,1.1l0.3-1.6l1.2-7.6l0.3-2l0,0l0.3-2l1.8-11.3H188h0.8l0.1-0.8
		l0.3-1.9h14.8l3.6,22.6l0.2,1.5l1.2-0.9c1.5-1.1,3.1-1.9,4.8-2.6c2.3-0.9,4.6-1.3,7-1.3c2.8,0,5.5,0.6,7.8,1.9
		c0.1,0,0.1,0.1,0.3,0.2l1.1,0.4l0.1-1.2l0.3-2.5l0.1-0.8l-0.8-0.2l-3-0.7l-0.1-11.8l22.9,5l1.7,8.5l1.8,0l1.8-7.3l19.1,4.6
		L254.3,95l-13.9-4.4l-0.1-5.4l0-0.8l-0.8-0.1l-13.9-2l0.8-7.1l0.2-1.7l-1.5,0.8c-0.7,0.4-1.4,0.7-2.1,0.9c-2.3,0.9-4.6,1.3-6.9,1.3
		c-0.7,0-1.3,0-2-0.1l-1.2-0.1l0.2,1.2l1,6.2l-20.3-3.6l-1.1-9.2l-0.3-3l-1.4,2.6l-2.3,4.5l-4.3-7.9l-1.3-2.4l-0.4,2.7l-0.9,6.1
		l-17.8-2.8l1.4-8.4l0.3-1.9l-1.7,1c-2.9,1.7-6.3,3.1-10.2,4c-1.4,0.3-2.8,0.6-4.3,0.7l-0.8,0.1v0.8V83l-35-17.3l-1.3-0.6l0,1.5
		l0,14.8l-15.7,2.3l-0.7-7.1l-0.2-1.9L94.4,76c-2.1,2-4.4,3.6-6.9,4.7c-2.6,1.1-5.3,1.7-7.9,1.7c-2.7,0-5.2-0.6-7.5-1.6
		c-4.2-2-7.3-5.7-8.6-10.4c-0.6-2.2-0.8-4.5-0.5-6.9l0.3-2.5l-1.8,1.8c-1.3,1.2-2.7,2.4-4.2,3.5l-0.5,0.4l0.2,0.6l5.3,20.2l0.9,3.6
		l-3.5,1.1l-9.9,3.2L46.4,96.3C46.4,96.3,46.4,96.3,46.4,96.3z M50.8,42c-0.5,0-1,0-1.6,0.1l-0.7,0.1l-1,0.2l0.3,1l0.2,0.6l2.8,9.3
		l0.3,0.9l0.4,1.3l1-0.9l0.7-0.6c2.8-2.5,3.7-5,3.1-8.2c-0.4-1.9-1.8-2.8-2.7-3.2C53,42.2,51.9,42,50.8,42L50.8,42L50.8,42z
		 M127,42.3l-1.8,1.7l-4.7,4.5l-1,1l1.3,0.5l5,1.9l1.5,0.6l-0.3-1.6c-0.4-2.1-0.5-4.2-0.3-6.2L127,42.3C127,42.3,127,42.3,127,42.3z
		 M147.4,37.1c-1.9,0-3.8,0.8-5.1,2.3c-2,2.2-2.4,5.5-1,8.1l0.4,0.7l0.6,1.1l0.9-1l0.6-0.6l6.9-7.8l0.5-0.6l0.9-1l-1.2-0.5l-0.8-0.3
		C149.1,37.3,148.3,37.1,147.4,37.1L147.4,37.1L147.4,37.1z"/>
</g>
<path id="path88" class="st12" d="M152.4,47c-0.1,0.1-0.1,0.1-0.2,0.2C152.3,47.2,152.4,47.1,152.4,47L152.4,47z"/>
<polygon id="polygon90" class="st12" points="158.4,41.6 161.8,37.9 160.6,39.1 160.6,39 159.6,40.1 156.2,43.7 159.4,46.6 160,43 
	161.6,44.4 "/>
<polygon id="polygon92" class="st12" points="158.4,41.6 161.6,44.4 162.8,36.8 161.8,37.9 "/>
<path id="path94" class="st12" d="M115.7,47.5L115.7,47.5L115.7,47.5z"/>
<path id="path96" class="st13" d="M134.7,50.7c0.3,0.3,0,0.1,0.3,0.3l2.1-1.5c-0.3-0.2-0.6-0.5-0.9-0.7c-3-2.8-2.2-9-0.3-12.4
	C130.7,40.6,131,47,134.7,50.7"/>
<path id="path98" class="st13" d="M160,54.2c-3.5,2.9-7.4,4.7-12.6,6c-1.1,0.3-2.3,0.5-3.3,0.5c-8.3,0.8-15.2-3-17.8-9.1
	c-0.3-0.7-0.6-1.5-0.8-2.3c-1.2-5.2-0.2-9.8,2.4-13.5c0.3-0.4,0.5-0.7,0.8-1c-0.1,0.1-0.3,0.2-0.4,0.3c-1,0.9-1.9,1.8-2.6,2.9
	c-2.6,3.6-3.6,8.3-2.4,13.5c0.2,0.8,0.4,1.6,0.8,2.3c2.6,6.2,9.6,10,17.8,9.2c1.1-0.1,2.2-0.3,3.4-0.6c5.2-1.3,9.2-3.1,12.6-6
	c0.8-0.7,1.7-1.5,2.5-2.3l-0.1-0.1C160.1,54.1,160,54.1,160,54.2"/>
<polygon id="polygon100" class="st13" points="101.7,38.5 110.9,25.5 110.5,25.2 101.6,37.7 "/>
<polygon id="polygon102" class="st13" points="162.8,36.8 161.6,44.4 160,43 159.4,46.6 156.2,43.7 159.6,40.1 160.6,39 160.6,39.1 
	161.8,37.9 "/>
<polygon id="polygon104" class="st13" points="151.4,15.4 154.6,14 148.7,6.4 146.8,9.2 "/>
<path id="path106" class="st13" d="M61.8,34.2C46.8,16,19.9,25.8,10.3,34.3l0.4,0.7c2.2-1.3,4.6-2.4,7-3.5c9.6-4.1,18.8-5.3,26.1-4
	c2.6,0.3,5.3,1.1,7.7,2.7c3.3,1.9,5.8,4.5,7.3,7.9c2.6,6,0.3,14-5.8,20.6C60.7,51.6,66,44.8,61.8,34.2z"/>
<path id="path108" class="st13" d="M92.3,55.4c-0.1-0.3-0.1-0.7-0.2-1c-0.8-3-2.6-5.4-5-7c-3.8-2.6-9.2-3.1-14.5-0.9
	c-2.8,1.2-5.2,3.1-7.2,5.3c1.5-1.3,3.2-2.3,5-3.1c5.3-2.3,10.7-1.7,14.5,0.9c2.4,1.6,4.2,4,5,7c0.1,0.3,0.2,0.7,0.2,1
	c0.2,1.2,0.3,2.3,0.3,3.5c-0.1,3.5-1.4,7-3.5,10c-0.3,0.5-0.7,0.9-1.1,1.4c1.2-1.1,2.3-2.2,3.2-3.5c2.2-3,3.4-6.5,3.6-10
	C92.6,57.8,92.5,56.6,92.3,55.4"/>
<path id="path110" class="st13" d="M77.6,51c0,0,2.2-2.2,2.1-2.2c-2.7-0.1-3.9,2.5-4,2.7C76.3,51.2,76.9,51.1,77.6,51"/>
<path id="path112" class="st13" d="M82.7,54.1c0.1,0.4,0.2,0.7,0.2,1.1c0,0.6-0.1,1.1-0.4,1.6c0.4-0.2,3.6-1.8,2.4-5
	C85,52,82.6,54.1,82.7,54.1"/>
<path id="path114" class="st13" d="M70.3,56c0-1.3,2.3-4.6,3-5.7c-3.6,2.3-5.2,5.4-5.2,7.8c0,4.2,3.7,7.6,8.1,7.6
	c2.1,0,5.9-1.1,8.4-5.1c-1.3,0.9-4.6,2.9-6.4,2.9C73.8,63.5,70.3,60.2,70.3,56"/>
<polygon id="polygon116" class="st13" points="101.2,59.8 101.3,76.7 104,76.9 103.4,57.6 "/>
<polygon id="polygon118" class="st13" points="85.8,27.5 85.8,29 98.6,25.2 99.5,41.5 101.7,38.5 101.2,22.2 "/>
<polygon id="polygon120" class="st13" points="124.3,33.3 112.4,22.3 110.9,25.5 121.5,35.4 "/>
<path id="path122" class="st13" d="M122.5,53.8l-14.1-4.7l-2,2.2l14,5.6c1.6,3,4,5.6,7,7.4c2.9,1.8,6.3,2.9,9.8,3.2v6.9l2.2,1.1
	l0.7-10.4L122.5,53.8L122.5,53.8z"/>
<path id="path124" class="st13" d="M145.1,51.9c3.5-0.8,5.4-2.6,7.2-4.6c-1.3,1.1-7.7,2.5-8.8,2.8l-2.1,2.3
	C142.3,52.4,143.9,52.2,145.1,51.9"/>
<path id="path126" class="st13" d="M138.8,27.9c-6.4,0.8-9.7,6.2-10.2,6.8c2.4-2,5.3-3.5,8.6-4.2c7.9-1.9,14.8,0.5,19.1,5.8l2.7-2.2
	C154.7,28.9,146.7,26,138.8,27.9"/>
<path id="path128" class="st13" d="M160.2,54c0.8-0.6,2.1-1.3,2.9-2.1l-8.5-7.6c-0.7,0.8-1.2,2.1-2,2.7L160.2,54L160.2,54z"/>
<path id="path130" class="st13" d="M203.9,74.4c-8.9-7.4-8.4-23.1-4-28.1L196,21.6l-8.6,1.1l-0.4,2.2h6.5l3.5,22.4
	c-4.4,5-6.5,11.7-5.1,17.9c1.1,4.8,4.1,8.6,8.3,10.8c0.4,0.2,0.9,0.4,1.3,0.6l0.1,0.3l2.6,0.4C204.1,77.4,204.4,74.6,203.9,74.4
	L203.9,74.4z"/>
<polygon id="polygon132" class="st13" points="169.6,25.2 169.2,27.4 179,27.4 181.9,43.3 184.1,41.1 181.8,24.3 "/>
<polygon id="polygon134" class="st13" points="186.4,56 183.2,64.2 184,66.4 188.5,53.9 "/>
<polygon id="polygon136" class="st13" points="177,50.9 174.8,53.1 172.4,67.9 174.7,68.7 "/>
<path id="path138" class="st13" d="M221.1,46.1c1.3,0.9,2.4,2.1,3.2,3.5c0.7,1.1,1.1,2.2,1.5,3.6c1.1,4.5-0.2,9.3-3,13.1
	c-0.3,0.4-0.6,0.8-0.9,1.1c1.1-1,15.1-11.3,1.5-24.8c-15-4.9-20.7,4.8-21.2,5.5c1.6-1.3,3.4-2.5,5.4-3.2
	C212.6,42.9,217.6,43.6,221.1,46.1"/>
<path id="path140" class="st13" d="M213.6,47.1c0,0.1,2.2-2.2,2.2-2.2c-2.7,0.1-4,1.4-3.8,2c-0.2,0.2-0.3,0.5-0.4,0.7
	C212.1,47.3,213.2,47.1,213.6,47.1"/>
<path id="path142" class="st13" d="M218.6,50.5c0.1,0.4,0.1,0.7,0.1,1.1c0,0.5-0.2,1-0.4,1.4c0.4-0.2,3.6-1.2,2.4-4.8
	C220.8,48.4,218.5,50.5,218.6,50.5"/>
<path id="path144" class="st13" d="M211.5,61.8c3,0.1,6.4-1.7,8.8-5c-6.1,1.3-12.6-9-12-10c-2.3,1.7-4.4,4.9-4.5,7.2
	C203.6,58.2,207.1,61.6,211.5,61.8"/>
<polygon id="polygon146" class="st13" points="245.2,88.5 246.6,89.4 264.2,36.6 251,33.6 250.9,36.7 261.5,39 "/>
<polygon id="polygon148" class="st13" points="224.3,27.9 224.4,30.9 238.4,33.7 243.8,59.3 246,57.1 240.8,31.2 "/>
<polygon id="polygon150" class="st13" points="235.1,57.1 231.2,78.9 233.4,79.6 237.3,54.9 "/>
<polygon id="polygon152" class="st13" points="53.4,86.9 46.9,63.1 44.5,64.8 50.6,87.5 "/>
<path id="path154" class="st13" d="M51.7,51.2c-1.5,1.6-4.9,4.7-6.8,5.9l-1.2-3.7l-2.5-8.2l-1.6-5.5l-1.6,2l1.6,5.5l2.5,8.1l1.2,3.7
	C46,57.5,49.8,54.3,51.7,51.2"/>
<path id="path156" class="st12" d="M144.5,37.1c-2.1-0.8-5-0.6-6.6,1.2c-0.4,0.4-1.1,1.4-1.3,1.9c1.5-1.2,4.3-1.5,6-0.8L144.5,37.1
	L144.5,37.1z"/>
<path id="path158" class="st12" d="M49.9,44.5c-0.2-1.2-1.4-2.2-2-2.5c-1-0.5-2.9-0.6-4.2-0.3c0.2,0.8,0.5,1.8,0.6,2.2
	c0.5,0.1,1.4,0.2,1.9,0.4c0.6,0.3,1.6,0.9,1.8,2.2c0.3,1.6,0.2,3.2-0.5,4.4C49.4,49.1,50.3,47.1,49.9,44.5"/>
<g id="g160" transform="translate(-5.451,-1.686)">
	<g id="g162">
		<path id="path164" class="st14" d="M58.6,46.1c-0.9-4.8-7.2-7.5-13.5-4.1l1.6,5.5l2.5,8.2l1.2,3.7C55.1,56.5,59.8,52.8,58.6,46.1z
			 M52.4,53.6c-0.7-2.2-2.2-7-2.2-7c0,0-0.3-1-0.7-2.2c1.3-0.2,2.6-0.1,3.6,0.4c0.6,0.3,1.6,0.9,1.8,2.2
			C55.5,49.6,54.6,51.6,52.4,53.6z"/>
	</g>
</g>
<g id="g166" transform="translate(-5.451,-1.686)">
	<g id="g168">
		<path id="path170" class="st15" d="M153.2,38.5c-3.5-3.2-8.9-3-12.1,0.5c-3.2,3.5-3,8.9,0.5,12.1c0.3,0.3,0.6,0.5,0.9,0.7
			l11.3-12.8C153.6,38.9,153.4,38.7,153.2,38.5z M142.6,47.5c-1.1-2-0.9-4.6,0.8-6.4c1.6-1.7,4-2.2,6.1-1.4L142.6,47.5z"/>
	</g>
</g>
<polygon id="polygon172" class="st16" points="162.8,35.4 156.6,41.4 162.5,46.7 "/>
<path id="path174" class="st17" d="M220.7,48.3c0.1,0.4,0.1,0.8,0.1,1.2c-0.1,2.4-2.3,4.2-5,4.1c-2.7-0.1-4.8-2.1-4.7-4.5
	c0.1-2.2,2.1-4,4.5-4.1c-0.5-0.1-1-0.2-1.5-0.2c-4.5-0.2-8.1,3-8.3,6.9c-0.2,4.2,3.2,7.7,7.6,7.8c4.5,0.2,8.1-3,8.3-7.2
	C222,50.9,221.5,49.5,220.7,48.3"/>
<linearGradient id="path183_00000114047429317842240500000012060547756190516387_" gradientUnits="userSpaceOnUse" x1="639.706" y1="1702.77" x2="655.635" y2="1702.77" gradientTransform="matrix(1 0 0 1 -569.451 -1646.686)">
	<stop  offset="0" style="stop-color:#3C5AA6"/>
	<stop  offset="0.9331" style="stop-color:#2B73B9"/>
	<stop  offset="1" style="stop-color:#2A75BB"/>
</linearGradient>
<path id="path183" style="fill:url(#path183_00000114047429317842240500000012060547756190516387_);" d="M85.1,53.1
	c0,2.4-2.2,4.3-4.8,4.3c-2.7,0-4.8-1.9-4.8-4.3c0-2.2,1.9-4.1,4.4-4.3c-0.5-0.1-1-0.1-1.5-0.1c-4.5,0-8,3.3-8,7.3
	c0,4.2,3.5,7.5,7.9,7.5c4.5,0,8-3.3,8-7.5c0-1.5-0.5-2.8-1.3-4C85,52.3,85.1,52.7,85.1,53.1"/>
<g id="g185" transform="translate(-5.451,-1.686)">
	<g id="g187">
		
			<linearGradient id="path196_00000039104205336240869880000014041045234618602121_" gradientUnits="userSpaceOnUse" x1="578.628" y1="1696.2565" x2="844.371" y2="1696.2565" gradientTransform="matrix(1 0 0 1 -569.451 -1646.686)">
			<stop  offset="0" style="stop-color:#3C5AA6"/>
			<stop  offset="0.9331" style="stop-color:#2B73B9"/>
			<stop  offset="1" style="stop-color:#2A75BB"/>
		</linearGradient>
		<path id="path196" style="fill:url(#path196_00000039104205336240869880000014041045234618602121_);" d="M254,30.6l-2,8.2
			l-1.8-9.1l-24.6-5.4l0.2,13.7l3.7,0.8l-0.3,2.5c0,0-0.1,0-0.1-0.1c-4.6-2.4-10.3-2.7-15.6-0.6c-1.8,0.7-3.5,1.6-5,2.7l-3.7-23.4
			h-16.3l-0.4,2.7h-17.2l-2,12l-1.4-1.8c-4.2-5.1-10.2-7.9-16.9-8.1l14.6-7.8L155,1.7l-18.4,21.2l3.2,3.9c-2.9,1.2-5.4,2.8-7.5,4.8
			l-15.8-14L111,28.1l0.2-10.2l-24.7,7.9L87.2,39l4.2-1.1l0.6,6.7c-4.8-2.2-10.6-2.1-15.9,0.2c-1.6,0.7-3.1,1.5-4.4,2.5
			c0.9-4.1,0.7-8.1-0.9-11.7c-1.8-4.2-5.1-7.8-9-10c-2.8-1.9-6.1-3-9.6-3.4c-8.5-1.5-18.8,0-28.9,4.3c-3.7,1.6-7.2,3.4-10.3,5.4
			l-3.9,2.5l2.4,4L18.9,51c0,0,2.3,3.8,2.3,3.8l4-2l0.6-0.3l18.4,41l1.8,3.9l4.1-1.3l9.9-3.2l4.4-1.4l-1.1-4.4l-5.3-20.2
			c1.5-1.1,2.9-2.3,4.2-3.6c-0.3,2.4-0.1,4.9,0.5,7.2c1.4,4.9,4.6,8.8,9.1,10.9c4.8,2.3,10.7,2.3,16.1,0c2.7-1.2,5.2-2.8,7.2-4.9
			l0.7,8.1l17.4-2.6l0-15.6l36.3,18V67.1c1.5-0.1,2.9-0.4,4.4-0.7c4-1,7.4-2.3,10.5-4.1l-1.5,9.3l19.6,3.1l1.1-7.1l5.1,9.5l3.1-6
			l1.1,9.9l22.2,3.9l-1.2-7.5c3,0.3,6.2-0.1,9.3-1.2c0.7-0.3,1.5-0.6,2.1-1l-0.9,8l14.8,2.1l0.1,6.1l15.4,4.8l20.1-60.5L254,30.6
			L254,30.6z M167.2,39.6l1-1.1l-1.2,7.6l-3.2-2.9L167.2,39.6z M154.2,8.4l5.4,7.3l-15.4,7.6l-1.1-1.6
			C143.1,21.8,154.2,8.4,154.2,8.4z M52.3,64.8l6.1,23.6l-9.9,3.2L28.1,46c-1.1,0.6-3.2,1.6-5,2.5L15.7,36c2.9-1.9,6.2-3.5,9.6-5
			c9.6-4.1,18.8-5.3,26.1-4c2.6,0.3,5.3,1.1,7.7,2.7c3.3,1.9,5.8,4.5,7.3,7.9C70,45.8,64.1,57.6,52.3,64.8z M98,60.6
			c-0.1,3.5-1.4,7-3.6,10c-2.1,2.9-4.9,5.2-8.3,6.7c-8.6,3.7-17.2,0-19.5-8.2c-2.2-7.9,3-17.3,11.3-20.9c5.3-2.3,10.7-1.7,14.5,0.9
			c2.4,1.6,4.2,4,5,7c0.1,0.3,0.2,0.7,0.2,1C98,58.3,98,59.5,98,60.6z M144.9,77.3l-36.1-18l0.1,18.9l-9.3,1.3l-0.7-7.8
			c2.9-4.9,3.9-10.8,2.4-16.1c-0.8-2.9-2.3-5.5-4.4-7.5l-1.3-15.9l-4.2,1.1l-0.2-4l15-4.5l0.9,15.4l11-15.5L129,35l-15.1,15.9
			l14.2,5.6c1.6,3,4,5.5,7,7.4c2.9,1.8,6.3,2.9,9.8,3.2L144.9,77.3L144.9,77.3L144.9,77.3z M126.2,51.1l-5-1.9l4.7-4.5
			C125.6,46.8,125.7,48.9,126.2,51.1z M165.4,55.9c-3.5,2.9-7.4,4.7-12.6,6c-1.1,0.3-2.3,0.5-3.3,0.5c-8.3,0.8-15.2-3-17.8-9.1
			c-0.3-0.7-0.6-1.5-0.8-2.3c-1.2-5.2-0.2-9.8,2.4-13.5c0.7-1.1,1.6-2,2.6-2.9c2.4-2.2,5.5-3.7,9-4.6c7.9-1.9,14.8,0.5,19.1,5.7
			l-15,16c1,0.2,2.6-0.1,3.8-0.4c3.6-0.9,5.6-2.8,7.3-4.8l6,5.4l1.8,1.6C167.1,54.4,166.3,55.2,165.4,55.9z M197.3,77.2L194,55.6
			l-4.6,11.9l-6.9-14.9h-0.1l-2.7,17.3l-11.5-2l1.6-9.6c0.4-0.4,0.9-0.8,1.3-1.3l3.7-3.8l-3.6-3.3l3.9-23h11.6l2.9,15.9l3.3-18.4
			h8.3l3.5,22.4c-4.4,5-6.5,11.7-5.1,17.9c1.1,4.8,4.1,8.6,8.3,10.9c0.4,0.2,0.9,0.4,1.3,0.6l0.4,2.9L197.3,77.2L197.3,77.2z
			 M226,70.1c-1.3,0.9-2.7,1.7-4.2,2.2c-3,1.1-5.9,1.4-8.6,0.8c-1.8-0.4-3.5-1.1-5-2.1c-2.3-1.7-4-4.1-4.8-7.2
			c-0.9-3.7-0.1-7.7,1.9-11.2c1-1.7,2.3-3.3,3.8-4.7c1.7-1.5,3.7-2.8,5.8-3.6c5.1-1.9,10.1-1.2,13.6,1.3c1.3,0.9,2.4,2.1,3.2,3.5
			c0.6,1.1,1.1,2.3,1.4,3.6c1.1,4.5-0.2,9.3-3,13.1C229.2,67.5,227.7,68.9,226,70.1z M252,90.5l-8.5-2.5l-0.7-31.4l-4.3,24.2
			l-9.3-1.5l0.7-7c6.1-5.1,9.3-13.2,7.5-20.6c-0.8-3.2-2.4-6.1-4.8-8.2l0.8-8.2l-3.5-0.9L230,30l16,3.2l5.4,25.5l5.5-22.9l12.2,2.7
			L252,90.5L252,90.5z"/>
	</g>
</g>
<g id="flowRoot3115" transform="matrix(0.93943959,0,0,0.93943959,14.793383,6.4307935)">
	<path id="path3084" d="M254.1,90.9v-2.5h-0.9V88h2.3v0.3h-0.9v2.5H254.1z"/>
	<path id="path3086" d="M255.8,90.9V88h0.6l0.7,2c0.1,0.2,0.1,0.3,0.1,0.4c0-0.1,0.1-0.3,0.2-0.5l0.7-2h0.5v2.9h-0.4v-2.4l-0.8,2.4
		H257l-0.8-2.4v2.4H255.8z"/>
</g>
</svg>
